<svg xmlns="http://www.w3.org/2000/svg" xmlns:svg="http://www.w3.org/2000/svg" xmlns:xlink="http://www.w3.org/1999/xlink" id="svg1" width="400" height="400" version="1.1" viewBox="0 0 400 400"><defs id="defs1"><linearGradient id="linearGradient31"><stop style="stop-color:#000;stop-opacity:.58959538" id="stop32" offset="0"/><stop style="stop-color:#000;stop-opacity:1" id="stop31" offset="1"/></linearGradient><linearGradient id="linearGradient32" x1="131.213" x2="131.213" y1=".521" y2="400.214" gradientUnits="userSpaceOnUse" xlink:href="#linearGradient31"/></defs><g id="g1"><g id="g32"><path id="path1" style="fill:url(#linearGradient32)" d="M 127.64258 0.11914062 C 72.035716 0.10922468 68.589361 0.49716363 62.458984 1.953125 C 57.851532 3.0473926 51.189657 5.2544125 47.654297 6.8574219 C 44.118935 8.4604312 38.362812 11.712666 34.863281 14.083984 C 31.363751 16.455305 26.226058 20.668472 23.447266 23.447266 C 20.668472 26.226058 16.455305 31.363751 14.083984 34.863281 C 11.712666 38.362812 8.4604312 44.118935 6.8574219 47.654297 C 5.2544125 51.189657 3.0473926 57.851532 1.953125 62.458984 C 0.011843162 70.63282 -0.028690456 74.036304 0.23828125 202.66797 C 0.49377385 325.76881 0.63008964 334.89739 2.2949219 340.5 C 3.2755229 343.8 6.0567703 350.55 8.4765625 355.5 C 10.896355 360.45 15.165076 367.30091 17.962891 370.72461 C 20.760705 374.1483 25.851699 379.21785 29.275391 381.99023 C 32.699081 384.76263 38.875008 388.76757 43 390.89062 C 47.124992 393.01368 52.782873 395.49284 55.574219 396.39844 C 58.365565 397.30405 62.640575 398.43463 65.074219 398.91211 C 67.507861 399.38958 128.00014 399.82235 199.5 399.87305 C 310.52792 399.9518 330.52158 399.75061 336.5 398.49023 C 340.35 397.67859 345.975 396.02631 349 394.81836 C 352.025 393.61041 356.075 391.75841 358 390.70312 C 359.925 389.64785 364.2 386.86437 367.5 384.51758 C 370.8 382.1708 375.54701 378.05626 378.04883 375.375 C 380.55066 372.69374 384.40596 367.8 386.61523 364.5 C 388.82452 361.2 391.56119 356.475 392.69727 354 C 393.83333 351.525 395.46988 347.41008 396.33398 344.85547 C 397.19811 342.30086 398.39396 337.35086 398.99219 333.85547 C 399.74849 329.43661 399.99274 287.43279 399.79102 196 L 399.5 64.5 L 397.15039 57.5 C 395.85798 53.650008 393.03333 47.084066 390.87305 42.910156 C 388.71275 38.736247 384.48979 32.343943 381.48828 28.705078 C 378.48677 25.066213 372.98641 19.78064 369.26562 16.958984 C 365.54486 14.137331 358.9 10.087558 354.5 7.9589844 C 350.1 5.830411 343.8 3.2846693 340.5 2.3007812 C 334.88943 0.62799441 325.94378 0.49413699 202.66797 0.23828125 C 170.51005 0.17153833 146.1782 0.12244594 127.64258 0.11914062 z M 199.5 55 C 205.36146 55 211.46652 55.712329 216.38672 56.970703 C 220.62494 58.054658 226.88463 60.293752 230.29688 61.945312 C 233.7091 63.596873 239.2 66.972703 242.5 69.447266 C 245.8 71.921828 250.84606 76.731516 253.71289 80.136719 C 256.57971 83.54192 260.48639 89.298508 262.39453 92.929688 C 264.30266 96.560866 266.8538 102.89963 268.06445 107.01562 C 270.00726 113.62088 270.32199 117.52249 270.74219 140.25 L 271.21875 166 L 289.35938 166.00195 C 304.65417 166.00326 308.03874 166.27782 310.92969 167.75195 C 312.81559 168.7136 315.29059 170.77139 316.42969 172.32422 C 318.48327 175.12367 318.5 175.81734 318.5 254.32422 C 318.5 327.06754 318.36226 333.7532 316.79492 336.61523 C 315.85665 338.32856 313.53743 340.46608 311.64258 341.36523 C 308.5192 342.84737 298.03126 343.00014 199.34961 342.99414 C 93.236112 342.98772 90.425286 342.93781 87.550781 341.04297 C 85.929053 339.97395 83.811462 337.61368 82.84375 335.79883 C 81.209008 332.73303 81.080469 327.00564 81.042969 255 C 81.005546 183.1434 81.130826 177.24955 82.751953 174.07031 C 83.713596 172.18441 85.769338 169.70941 87.320312 168.57031 C 89.894838 166.67948 91.775264 166.47375 108.93555 166.19141 L 127.73242 165.88086 L 128.27539 140.19141 C 128.74629 117.88561 129.1014 113.51327 130.97656 107.01562 C 132.16441 102.89963 134.69734 96.560866 136.60547 92.929688 C 138.51361 89.298508 142.42029 83.553197 145.28711 80.162109 C 148.15394 76.771022 153.15031 71.96567 156.39062 69.482422 C 159.63095 66.999172 165.12381 63.612066 168.5957 61.955078 C 172.06762 60.298089 178.37506 58.054658 182.61328 56.970703 C 187.53348 55.712329 193.63854 55 199.5 55 z M 199.4707 79 C 194.98414 79 188.93702 79.712943 185.93164 80.595703 C 182.94432 81.473161 177.90312 83.56547 174.72852 85.246094 C 171.55391 86.926717 166.53417 90.666784 163.57422 93.556641 C 160.18567 96.864951 156.98232 101.34659 154.92383 105.65625 C 152.0664 111.6386 151.59738 113.77837 151.20117 122.64453 C 150.84635 130.58434 151.13759 134.02964 152.54492 138.50391 C 153.53384 141.64794 156.03673 146.84312 158.10742 150.04688 C 160.17811 153.25063 164.48304 157.91949 167.67383 160.42383 C 170.86462 162.92818 176.40668 166.19007 179.98828 167.67188 C 185.47031 169.93995 188.37197 170.43359 198.33203 170.79102 L 210.16211 171.21484 L 209.51953 173.85742 C 209.16586 175.31067 207.30113 180.1 205.375 184.5 C 203.44888 188.9 201.62887 193.0625 201.33008 193.75 C 201.03128 194.4375 201.17124 194.99523 201.64258 194.99023 C 202.11393 194.98494 205.46743 192.75131 209.09375 190.02734 C 212.72006 187.30338 218.57006 182.00275 222.09375 178.24805 C 225.61743 174.49334 230.37935 168.96446 232.67578 165.96094 C 234.97221 162.95741 238.47813 157.8 240.4668 154.5 C 242.45546 151.2 245.24225 144.78579 246.66016 140.24609 C 248.85391 133.22239 249.17748 130.61394 248.83203 122.74609 C 248.49013 114.95895 247.92479 112.42952 245.24805 106.71289 C 243.36264 102.68626 239.80292 97.546937 236.49609 94.080078 C 233.43026 90.865868 228.31458 86.848338 225.12891 85.150391 C 221.94323 83.452443 216.69223 81.373405 213.45898 80.53125 C 210.22573 79.689095 203.93032 79 199.4707 79 z"/><g id="g29"><path style="fill:#000" id="path28" d="m 219.81935,226.23629 c -2.57436,0.27632 -5.1267,0.0564 -5.67186,-0.4888 -0.54516,-0.54516 -0.75322,-1.61137 -0.46236,-2.36935 0.31752,-0.82743 2.00813,-1.37814 4.23073,-1.37814 2.03603,0 4.57468,0.63821 5.64144,1.41824 1.06675,0.78003 1.71526,1.62016 1.44113,1.86694 -0.27414,0.24679 -2.60472,0.67479 -5.17908,0.95111 z"/><path style="fill:#000" id="path27" d="m 185.25,226.82529 c -0.9625,-0.0961 -3.6625,-0.34696 -6,-0.5575 -2.3375,-0.21053 -4.25,-0.82987 -4.25,-1.37631 0,-0.54645 1.63891,-1.67831 3.64203,-2.51527 2.00311,-0.83695 4.70311,-1.25542 6,-0.92992 1.68464,0.42282 2.35797,1.30026 2.35797,3.07276 0,1.7627 -0.50664,2.43037 -1.75,2.30624 z"/><path style="fill:#000" id="path25" d="m 215.45885,251.79218 c -1.12263,0.1607 -2.36013,-0.0268 -2.75,-0.41666 C 212.31898,250.98565 212,249.66481 212,248.44032 c 0,-1.22449 0.675,-2.48536 1.5,-2.80195 0.825,-0.31658 2.19934,-0.30724 3.0541,0.0208 0.98445,0.37777 1.44263,1.55753 1.25,3.21862 -0.20288,1.74945 -0.98348,2.7195 -2.34525,2.91443 z"/><path style="fill:#000" id="path23" d="m 184.83584,251.80814 c -2.00675,0.2321 -2.83408,-0.22724 -3.35278,-1.86151 -0.45023,-1.41856 -0.12727,-2.73099 0.93292,-3.79119 1.24533,-1.24532 2.02322,-1.36817 3.35278,-0.5295 0.95218,0.60062 1.73124,2.16799 1.73124,3.48305 0,1.84592 -0.60736,2.46126 -2.66416,2.69915 z"/><path id="path21" style="fill:#000" d="M 195.57812 216.38672 C 195.33634 216.37881 195.12611 216.42107 194.9668 216.51953 C 194.31863 216.92012 193.98206 218.71496 194.20117 220.5918 C 194.55998 223.66522 194.28044 224.06983 190.87695 225.43164 C 188.83364 226.24922 185.66206 228.23174 183.83008 229.83594 C 181.39461 231.9686 179.0215 232.93734 175 233.4375 C 171.975 233.81372 168.27741 234.59199 166.7832 235.16797 C 165.28899 235.74395 163.79715 237.06657 163.4668 238.10742 C 163.13644 239.14827 162.21958 240 161.43164 240 C 160.45393 240 160 241.14122 160 243.59375 C 160 246.35288 160.46775 247.30913 162.01172 247.71289 C 163.16682 248.01496 164.2496 249.35816 164.55664 250.86914 C 164.85063 252.31592 165.51992 255.12645 166.04492 257.11523 C 166.56991 259.10404 167 261.22109 167 261.81836 C 167 262.41563 164.9054 264.34436 162.3457 266.10547 C 159.78604 267.86659 156.86101 270.13899 155.8457 271.1543 C 154.8304 272.1696 154 274.27816 154 275.83984 C 154 277.88952 154.68654 278.99177 156.4707 279.80469 C 158.37812 280.67377 159.87204 280.60258 163.01367 279.49414 C 166.73369 278.18164 167.13313 278.20696 167.63672 279.7793 C 167.93983 280.72567 168.67409 282.79724 169.26953 284.38281 C 169.86497 285.96838 171.50156 288.63139 172.90625 290.30078 C 174.31095 291.97017 177.46979 294.61043 179.92578 296.16797 L 184.39062 299 L 179.66406 299 C 176.21009 299 174.76729 299.4414 174.30859 300.63672 C 173.96332 301.53648 174.14547 302.99898 174.71289 303.88672 C 175.53712 305.17628 177.10284 305.42758 182.5 305.13867 C 186.92781 304.90165 189.03874 305.12938 188.625 305.79883 C 188.27783 306.36059 188.2679 307.53552 188.60352 308.41016 C 188.93915 309.28479 190.26513 310 191.54883 310 C 192.83253 310 194.16008 310.45 194.5 311 C 194.83992 311.55 195.69171 312 196.39258 312 C 197.09345 312 197.98374 311.68222 198.37109 311.29492 C 198.75843 310.90758 200.07029 310.54157 201.28711 310.48047 C 202.50394 310.41934 204.95345 310.28708 206.73047 310.18555 C 209.26821 310.04056 210.097 309.46362 210.58984 307.5 C 211.11534 305.40624 211.80954 304.99905 214.85938 304.99805 C 216.86222 304.9973 222.325 304.27846 227 303.40039 C 231.675 302.52232 237.03814 301.5091 238.91797 301.14844 C 240.7978 300.78777 242.52354 299.93132 242.75195 299.24609 C 242.98036 298.56087 242.53411 297.75928 241.76172 297.46289 C 240.84186 297.10991 240.50826 295.90084 240.79297 293.96094 C 241.14254 291.5792 240.86191 291.00335 239.36328 291.01562 C 238.33835 291.02404 236.86307 291.43459 236.08398 291.92773 C 235.28009 292.43661 233.69401 292.4539 232.41797 291.96875 C 230.78368 291.3474 230.01817 291.5113 229.61328 292.56641 C 229.30692 293.36478 229.46106 295.08415 229.95703 296.38867 C 230.78623 298.56962 230.56331 298.80966 227.17969 299.36914 C 225.15578 299.70379 221.25 299.9728 218.5 299.9668 L 213.5 299.95703 L 217.60156 298.09375 C 219.85717 297.06938 223.26497 294.66859 225.17383 292.75977 C 227.08268 290.85091 229.62424 287.20495 230.82227 284.65625 C 232.02027 282.10754 233 279.39509 233 278.62891 C 233 277.44789 233.57083 277.43966 236.75 278.57422 C 238.8125 279.31026 241.02955 279.93293 241.67773 279.95703 C 242.32595 279.98117 243.56348 279.29202 244.42773 278.42773 C 245.29202 277.56348 246 276.0423 246 275.04688 C 246 274.05143 244.5375 271.79575 242.75 270.0332 C 240.9625 268.27064 238.2918 266.1955 236.81445 265.42188 C 234.88494 264.41142 234.03994 263.09772 233.81445 260.75781 C 233.6418 258.96626 233.88925 255.40086 234.36523 252.83594 C 234.97363 249.55738 235.79036 248.02616 237.11523 247.67969 C 238.52029 247.31226 239 246.273 239 243.59375 C 239 241.14122 238.54607 240 237.56836 240 C 236.78042 240 235.86356 239.14827 235.5332 238.10742 C 235.20285 237.06657 233.71101 235.73525 232.2168 235.14844 C 230.72259 234.56163 227.7 233.7732 225.5 233.39648 C 223.3 233.01975 220.20313 231.63049 218.61719 230.30859 C 217.03125 228.98671 214.0109 227.02683 211.90625 225.95312 C 209.8016 224.87944 207.22337 224 206.17773 224 C 204.67163 224 204.37938 223.46122 204.77148 221.41016 C 205.20986 219.11692 204.97678 218.85993 202.73047 219.1543 C 201.27187 219.34544 199.33031 218.7035 198.16016 217.64453 C 197.32091 216.88503 196.30355 216.41044 195.57812 216.38672 z M 216.17969 238.19531 C 217.90913 238.1942 219.86262 238.28824 221.62109 238.47656 C 226.62257 239.01217 228.25595 239.60727 229.11523 241.21289 C 229.75182 242.40237 229.93805 244.97909 229.56055 247.33984 C 229.20222 249.58069 228.05604 253.34616 227.01172 255.70703 L 225.11328 260 L 218.05664 260 C 212.5185 260 210.6019 259.59995 209.14648 258.14453 C 207.95823 256.95626 207.03766 254.05316 206.58594 250.06055 C 206.04153 245.24852 206.22817 243.29993 207.40625 241.50195 C 208.24521 240.22153 210.34909 238.86261 212.08008 238.48242 C 212.94557 238.29256 214.45025 238.19643 216.17969 238.19531 z M 183.70117 238.57422 C 189.36049 238.59289 190.49923 238.96265 191.66211 240.5 C 192.79868 242.00251 193.05844 244.22672 192.70703 249.44336 C 192.32714 255.08264 191.82114 256.72659 190.00977 258.19336 C 188.34335 259.54274 186.042 260 180.91406 260 C 174.20185 260 174.01526 259.92907 172.39453 256.79492 C 171.48303 255.03227 170.54776 250.86977 170.31641 247.54492 C 170.08506 244.22007 170.32953 240.86235 170.85938 240.08398 C 171.56439 239.04829 174.28017 238.64598 180.98633 238.58398 C 181.99257 238.57467 182.8927 238.57155 183.70117 238.57422 z M 199.5 251 C 200.35223 251 201.50095 252.18739 202.05273 253.63867 C 202.6045 255.08995 202.93023 256.34248 202.77734 256.42188 C 202.62445 256.5012 201.78809 257.1056 200.91797 257.76562 C 199.68225 258.70298 198.95825 258.68946 197.60938 257.70312 C 196.20341 256.67508 196.07401 255.93537 196.91602 253.7207 C 197.48486 252.22454 198.64777 251 199.5 251 z"/></g></g></g></svg>